HIERARCHY
ROOT hip
{
	OFFSET 0.000000 0.000000 0.000000 
	CHANNELS 6 Xposition Yposition Zposition Xrotation Zrotation Yrotation
	JOINT abdomen
	{
		OFFSET 0.000000 3.402643 0.000000 
		CHANNELS 3 Xrotation Zrotation Yrotation
		JOINT chest
		{
			OFFSET 0.000000 8.438565 -0.680529 
			CHANNELS 3 Xrotation Zrotation Yrotation
			JOINT neck
			{
				OFFSET 0.000000 10.207942 -0.272212 
				CHANNELS 3 Xrotation Zrotation Yrotation
				JOINT head
				{
					OFFSET 0.000000 3.130431 0.000000 
					CHANNELS 3 Xrotation Zrotation Yrotation
					End Site
					{
						OFFSET 0.000000 3.130435 0.000000 
					}
				}
			}
			JOINT lCollar
			{
				OFFSET 3.470700 6.669187 -0.816635 
				CHANNELS 3 Yrotation Zrotation Xrotation
				JOINT lShldr
				{
					OFFSET 3.198488 0.000000 0.000000 
					CHANNELS 3 Zrotation Yrotation Xrotation
					JOINT lForeArm
					{
						OFFSET 10.139888 0.000000 0.000000 
						CHANNELS 3 Yrotation Zrotation Xrotation
						JOINT lHand
						{
							OFFSET 8.370511 0.000000 0.000000 
							CHANNELS 3 Zrotation Yrotation Xrotation
							End Site
							{
								OFFSET 4.083176 0.000000 0.000000 
							}
						}
					}
				}
			}
			JOINT rCollar
			{
				OFFSET -3.470700 6.669187 -0.816635 
				CHANNELS 3 Yrotation Zrotation Xrotation
				JOINT rShldr
				{
					OFFSET -3.198488 0.000000 0.000000 
					CHANNELS 3 Zrotation Yrotation Xrotation
					JOINT rForeArm
					{
						OFFSET -10.139888 0.000000 0.000000 
						CHANNELS 3 Yrotation Zrotation Xrotation
						JOINT rHand
						{
							OFFSET -8.370511 0.000000 0.000000 
							CHANNELS 3 Zrotation Yrotation Xrotation
							End Site
							{
								OFFSET -4.083176 0.000000 0.000000 
							}
						}
					}
				}
			}
		}
	}
	JOINT lThigh
	{
		OFFSET 5.308129 -1.633274 1.361059 
		CHANNELS 3 Xrotation Zrotation Yrotation
		JOINT lShin
		{
			OFFSET -2.041588 -20.007561 0.000000 
			CHANNELS 3 Xrotation Zrotation Yrotation
			JOINT lFoot
			{
				OFFSET 0.000000 -19.190928 -1.224953 
				CHANNELS 3 Xrotation Yrotation Zrotation
				End Site
				{
					OFFSET 0.000000 -2.449906 4.627600 
				}
			}
		}
	}
	JOINT rThigh
	{
		OFFSET -5.308129 -1.633274 1.361059 
		CHANNELS 3 Xrotation Zrotation Yrotation
		JOINT rShin
		{
			OFFSET 2.041588 -20.007561 0.000000 
			CHANNELS 3 Xrotation Zrotation Yrotation
			JOINT rFoot
			{
				OFFSET 0.000000 -19.190928 -1.224953 
				CHANNELS 3 Xrotation Yrotation Zrotation
				End Site
				{
					OFFSET 0.000000 -2.449906 4.627600 
				}
			}
		}
	}
}
MOTION
Frames: 13
Frame Time: 0.033333
3.489500 49.645267 -1.372958 0.673076 -0.556568 -0.927785 0.000000 0.000000 0.000000 0.423856 -2.177679 0.410231 7.242319 -1.324803 -4.053907 12.499409 0.886699 -3.818808 -2.853881 -1.109809 0.907278 -74.074005 10.334683 17.038973 -50.972794 -1.788430 32.720142 -6.009436 -0.794430 -3.245176 4.883802 5.768013 0.869396 70.659546 -21.192780 8.194814 46.017658 5.707509 24.240431 -3.697070 -4.362841 -3.476613 -8.024647 4.802879 4.545385 19.601273 -3.643588 13.227916 -11.614616 0.293546 -2.786262 0.926089 -12.777143 -7.520440 0.746626 -0.399426 -6.936268 1.037926 0.123902 13.704014 
3.764544 49.654823 -1.776945 0.954407 -0.897698 -2.324546 0.000000 0.000000 0.000000 0.545077 -2.119109 0.312647 7.515851 -1.754145 -3.703022 12.493402 1.734539 -3.761292 -2.836570 -1.436714 1.005035 -70.302925 8.592319 20.618444 -52.047329 -3.347215 28.417936 -1.816486 -4.429040 -3.250165 4.969407 5.280665 0.976786 68.000435 -19.645323 10.049654 45.418797 5.761968 27.878557 -1.603697 -0.333235 -3.507657 -8.831738 4.927600 4.692926 19.812649 -3.744101 14.503094 -11.347077 0.245858 -2.547668 -0.547229 -12.192639 -6.666824 0.954114 -0.614929 -8.403358 2.138444 0.244327 13.468455 
4.056540 49.652046 -2.160622 1.031446 -1.120579 -3.799629 0.000000 0.000000 0.000000 0.761829 -2.177713 0.253723 7.881136 -1.900672 -3.537419 12.744335 1.832207 -3.653908 -2.999485 -1.361976 1.199869 -67.335449 7.174358 22.510187 -52.452747 -4.040099 26.628872 -1.797542 -4.232811 -3.268378 5.083154 5.065814 1.171237 64.985054 -17.945309 12.063039 45.229515 5.991974 30.117924 -0.122382 0.569843 -3.448264 -9.358186 4.800235 4.698996 19.983507 -3.669646 15.905746 -11.095852 0.234204 -2.443296 -1.767408 -11.789199 -6.245006 0.992042 -0.477144 -10.201550 3.478289 0.372062 12.759662 
4.310043 49.643723 -2.503727 0.830259 -1.409384 -5.548794 0.000000 0.000000 0.000000 1.142092 -2.226539 0.263852 8.138974 -1.901024 -3.361412 13.351226 1.452519 -3.399325 -3.092689 -1.625724 1.521962 -64.194992 6.314696 23.351091 -52.248722 -4.502746 26.196884 -1.772625 -5.013411 -3.242820 5.108882 4.767117 1.531419 62.525749 -15.994558 13.744290 45.113384 6.369632 30.245584 -0.614002 -1.319218 -3.491246 -9.557570 4.841979 4.909479 20.259962 -3.723776 17.553843 -10.991747 0.213595 -2.311906 -2.704571 -11.274950 -6.160157 0.998579 0.014939 -12.168582 4.851429 0.484758 11.565325 
4.502338 49.623344 -2.806831 0.863836 -1.665314 -7.503341 0.000000 0.000000 0.000000 1.226245 -2.343708 0.341910 8.072598 -1.872123 -3.175641 14.179310 0.906869 -3.105852 -2.963837 -1.598118 1.619625 -61.582394 6.084669 23.725235 -51.588310 -4.859236 26.121302 -1.624900 -4.506475 -3.272081 5.351820 4.538683 1.627763 60.542782 -14.413733 14.602108 45.022095 6.641837 29.984110 -2.088312 -2.761983 -3.511597 -9.931693 5.078351 5.324685 20.670843 -3.926747 19.009954 -11.004709 0.236220 -2.246642 -3.758907 -10.630052 -6.115885 0.810385 0.818856 -14.438532 6.222744 0.515876 9.790505 
4.688401 49.606499 -3.090916 1.026344 -1.916302 -9.576014 0.000000 0.000000 0.000000 1.211068 -2.275308 0.488284 7.858016 -2.155692 -2.765755 14.355818 1.277488 -3.047423 -2.399980 -1.855308 1.610938 -59.399048 6.105513 22.958319 -50.101639 -5.159791 27.070007 -1.687927 -3.932951 -3.277070 5.539807 4.114150 1.626609 59.424995 -12.992976 14.663911 45.013912 6.683345 28.871626 -4.193431 -3.613154 -3.508706 -10.388812 5.379756 5.671274 21.016251 -4.072090 20.537416 -11.002129 0.217334 -2.299287 -5.028855 -10.037631 -6.228513 1.055301 1.817983 -16.217924 7.020256 0.433119 7.471903 
4.850040 49.601326 -3.336818 1.047874 -2.068545 -11.296765 0.000000 0.000000 0.000000 1.221102 -2.353338 0.703334 7.950177 -2.116846 -2.668163 13.435253 1.462638 -3.145500 -2.370377 -1.854889 1.620724 -57.949238 6.697594 21.418404 -48.025555 -5.417791 27.312397 -1.888049 -2.839756 -3.303022 5.794895 4.395930 1.636244 58.445053 -12.090324 13.572676 44.947853 6.580801 28.873367 -6.286027 -3.448476 -3.505832 -10.569431 5.444812 5.839168 21.124554 -4.081999 21.980736 -10.884027 0.245199 -2.360713 -6.588411 -9.602951 -6.222975 3.045166 2.555351 -16.985386 6.447927 0.351279 5.816395 
4.968809 49.589497 -3.552627 1.138193 -2.296913 -12.598354 0.000000 0.000000 0.000000 1.167127 -2.333858 0.596004 7.760997 -2.009476 -2.706838 12.892957 1.745447 -3.126226 -2.569346 -1.780127 1.571414 -57.063602 7.977530 19.073763 -46.046814 -5.306209 27.168076 -2.411820 -1.412892 -3.321802 5.763049 4.671322 1.568494 57.988846 -11.204316 12.574270 45.175446 6.529112 27.733040 -7.660862 -3.052289 -3.527362 -10.942240 5.572821 5.853170 21.399673 -3.952183 22.928984 -10.772784 0.229788 -2.443419 -6.939461 -8.987752 -6.037161 3.795744 2.924080 -16.882071 5.786678 0.264841 5.639222 
5.081277 49.573551 -3.729793 1.136791 -2.369106 -13.987046 0.000000 0.000000 0.000000 1.128762 -2.343631 0.576489 7.651008 -1.941162 -2.726352 12.095471 1.706505 -3.087185 -2.904605 -1.718419 1.522231 -56.602955 9.687634 16.577946 -44.459599 -5.201306 25.481260 -2.189970 -0.188295 -3.383957 5.789288 4.930772 1.520798 58.245171 -10.618252 11.344833 45.781281 6.380785 25.530865 -7.743573 -2.685078 -3.545230 -11.105908 5.493397 5.839107 21.567917 -3.801612 24.368343 -10.676146 0.219028 -2.653808 -6.948549 -8.401509 -5.631364 4.860257 2.759773 -16.358652 4.606460 0.264668 6.404020 
5.185346 49.599586 -3.892743 1.038894 -2.527382 -15.836388 0.000000 0.000000 0.000000 1.159726 -2.265404 0.801313 7.628592 -1.892852 -2.413696 11.509423 1.901569 -3.067957 -2.612682 -1.625006 1.571357 -56.541405 11.179521 14.146319 -42.806255 -4.918231 23.636112 -2.601199 0.316444 -3.377088 6.082575 5.195698 1.549832 58.559147 -10.050501 10.688719 46.396832 6.212780 24.247675 -7.232252 -2.425127 -3.558993 -10.902773 5.543238 5.960743 21.330925 -3.648863 25.886909 -10.356400 0.265608 -2.877606 -7.221202 -7.707992 -5.176732 6.615082 2.553581 -15.874839 3.102834 0.166692 6.466955 
5.275580 49.606918 -4.054467 0.905034 -2.638065 -17.988609 0.000000 0.000000 0.000000 1.231631 -2.235820 1.221298 7.619156 -1.766541 -1.964065 11.137992 1.765158 -2.999330 -2.139243 -1.028821 1.649485 -57.318928 12.497433 12.146115 -41.218872 -4.701612 20.781706 -1.957354 2.621937 -3.476164 6.517175 5.166487 1.616157 59.221416 -9.589207 10.722822 47.234161 6.044761 23.887571 -6.930981 -2.550818 -3.544040 -10.710745 5.662694 6.129921 21.300817 -3.535033 27.520390 -10.128072 0.299140 -3.205498 -7.397885 -7.123850 -4.745088 8.327214 2.314521 -14.894631 1.647718 0.072625 6.621700 
5.308280 49.651997 -4.166785 0.942030 -2.954046 -19.568346 0.000000 0.000000 0.000000 1.174420 -2.040491 1.299395 7.606667 -1.483596 -1.856111 11.056203 1.511732 -2.901184 -1.992191 -0.369677 1.639657 -58.179482 13.960655 10.482039 -40.307911 -4.081615 20.438848 -2.418636 2.653286 -3.479859 6.295234 4.805263 1.587074 60.560154 -9.061887 11.482102 47.727970 5.971827 24.116146 -7.515354 -2.434293 -3.557942 -10.366082 6.070459 6.435817 21.097134 -3.541770 27.915062 -10.055904 0.306158 -3.287958 -7.660670 -6.371856 -4.375567 9.858000 2.155221 -15.126273 0.955395 0.046253 6.689969 
5.305720 49.710503 -4.181774 0.726761 -3.091777 -20.519796 0.000000 0.000000 0.000000 1.215013 -2.011415 0.996508 7.668598 -1.395538 -2.110176 11.147499 1.648304 -2.881913 -2.355839 -0.292561 1.649020 -58.463024 15.876438 9.576954 -40.175793 -3.927393 18.678764 -1.099288 1.685075 -3.458935 5.995476 5.012952 1.598456 61.438255 -9.120158 12.168284 48.450592 5.816943 24.546505 -7.261329 -2.435376 -3.546817 -9.439861 6.334846 6.877645 20.550682 -3.874072 27.097050 -10.193516 0.293784 -3.057329 -8.944797 -6.210644 -4.444886 14.034198 2.134507 -15.447458 -0.030692 -0.031919 7.131555 
